<?xml version="1.0" encoding="UTF-8" standalone="no"?>
<!-- Generator: Adobe Illustrator 16.0.0, SVG Export Plug-In . SVG Version: 6.00 Build 0)  -->

<svg
   xmlns:dc="http://purl.org/dc/elements/1.1/"
   xmlns:cc="http://creativecommons.org/ns#"
   xmlns:rdf="http://www.w3.org/1999/02/22-rdf-syntax-ns#"
   xmlns:svg="http://www.w3.org/2000/svg"
   xmlns="http://www.w3.org/2000/svg"
   xmlns:sodipodi="http://sodipodi.sourceforge.net/DTD/sodipodi-0.dtd"
   xmlns:inkscape="http://www.inkscape.org/namespaces/inkscape"
   version="1.1"
   id="Capa_1"
   x="0px"
   y="0px"
   width="52.756px"
   height="52.757px"
   viewBox="0 0 52.756 52.757"
   style="enable-background:new 0 0 52.756 52.757;"
   xml:space="preserve"
   inkscape:version="0.91 r13725"
   sodipodi:docname="UploadIcon.svg"><metadata
     id="metadata4398"><rdf:RDF><cc:Work
         rdf:about=""><dc:format>image/svg+xml</dc:format><dc:type
           rdf:resource="http://purl.org/dc/dcmitype/StillImage" /><dc:title></dc:title></cc:Work></rdf:RDF></metadata><defs
     id="defs4396" /><sodipodi:namedview
     pagecolor="#ffffff"
     bordercolor="#666666"
     borderopacity="1"
     objecttolerance="10"
     gridtolerance="10"
     guidetolerance="10"
     inkscape:pageopacity="0"
     inkscape:pageshadow="2"
     inkscape:window-width="1366"
     inkscape:window-height="744"
     id="namedview4394"
     showgrid="false"
     inkscape:zoom="11.505582"
     inkscape:cx="11.254906"
     inkscape:cy="26.3785"
     inkscape:window-x="0"
     inkscape:window-y="24"
     inkscape:window-maximized="1"
     inkscape:current-layer="Capa_1" /><g
     id="g4354"
     style="fill:#00aa9c;fill-opacity:1"><g
       id="g4356"
       style="fill:#00aa9c;fill-opacity:1"><g
         id="g4358"
         style="fill:#00aa9c;fill-opacity:1"><path
           d="M26.108,0L15.585,10.524c-1.048,1.024-0.815,1.746,0.649,1.746h5.873l-0.001,12.788c0,2.208,1.79,4,4,4l0,0     c2.209,0,4-1.791,4-4l0.001-12.789h5.876c1.462,0.001,1.693-0.723,0.646-1.747L26.108,0z"
           id="path4360"
           style="fill:#00aa9c;fill-opacity:1" /><path
           d="M49.027,25.77h-6.049c-0.554,0-1,0.447-1,1v17.939H10.78V26.77c0-0.553-0.447-1-1-1H3.731c-0.553,0-1,0.447-1,1v20.464     c0,3.045,2.479,5.522,5.524,5.522h36.248c3.046,0,5.523-2.479,5.523-5.522V26.77C50.027,26.217,49.581,25.77,49.027,25.77z"
           id="path4362"
           style="fill:#00aa9c;fill-opacity:1" /></g></g></g><g
     id="g4364" /><g
     id="g4366" /><g
     id="g4368" /><g
     id="g4370" /><g
     id="g4372" /><g
     id="g4374" /><g
     id="g4376" /><g
     id="g4378" /><g
     id="g4380" /><g
     id="g4382" /><g
     id="g4384" /><g
     id="g4386" /><g
     id="g4388" /><g
     id="g4390" /><g
     id="g4392" /></svg>